<?xml version="1.0" standalone="no"?>
<!DOCTYPE svg PUBLIC "-//W3C//DTD SVG 20010904//EN"
 "http://www.w3.org/TR/2001/REC-SVG-20010904/DTD/svg10.dtd">
<svg version="1.0" xmlns="http://www.w3.org/2000/svg"
 width="300.000000pt" height="300.000000pt" viewBox="0 0 300.000000 300.000000"
 preserveAspectRatio="xMidYMid meet">
<metadata>
Created by potrace 1.14, written by Peter Selinger 2001-2017
</metadata>
<g transform="translate(0.000000,300.000000) scale(0.100000,-0.100000)"
fill="#000000" stroke="none">
<path d="M1290 2725 c-339 -76 -590 -317 -696 -670 -25 -82 -28 -105 -28 -260
-1 -132 3 -188 17 -248 10 -43 21 -77 23 -74 2 2 -1 28 -8 58 -8 33 -12 115
-12 209 1 134 5 169 28 255 153 579 718 864 1231 621 101 -48 234 -144 295
-213 22 -25 39 -48 37 -50 -3 -2 -46 11 -98 28 -81 28 -108 32 -194 32 -80 0
-111 -4 -158 -22 -112 -44 -212 -165 -261 -316 -21 -67 -437 -1776 -436 -1794
1 -3 15 33 33 80 102 267 253 418 450 449 273 42 323 63 442 184 86 87 122
145 160 256 35 104 49 215 41 349 -3 64 -9 168 -12 231 -5 85 -2 139 10 208
15 88 61 212 84 226 5 3 30 -33 56 -82 53 -98 52 -74 0 30 -19 37 -34 72 -34
77 0 17 73 82 125 112 64 37 53 36 -75 -5 l-104 -34 -35 41 c-124 148 -286
254 -473 308 -96 28 -313 35 -408 14z"/>
</g>
</svg>
